<?xml version="1.0" encoding="UTF-8" standalone="no"?>
<svg
   xmlns:dc="http://purl.org/dc/elements/1.1/"
   xmlns:cc="http://creativecommons.org/ns#"
   xmlns:rdf="http://www.w3.org/1999/02/22-rdf-syntax-ns#"
   xmlns:svg="http://www.w3.org/2000/svg"
   xmlns="http://www.w3.org/2000/svg"
   version="1.1"
   id="svg2"
   xml:space="preserve"
   width="1148.3333"
   height="449.07733"
   viewBox="0 0 1148.3332 449.07732"><metadata
     id="metadata8"><rdf:RDF><cc:Work
         rdf:about=""><dc:format>image/svg+xml</dc:format><dc:type
           rdf:resource="http://purl.org/dc/dcmitype/StillImage" /><dc:title></dc:title></cc:Work></rdf:RDF></metadata><defs
     id="defs6"><clipPath
       clipPathUnits="userSpaceOnUse"
       id="clipPath20"><path
         d="M 0,0 H 11900 V 8410 H 0 Z"
         id="path18" /></clipPath></defs><g
     id="g10"
     transform="matrix(1.3333333,0,0,-1.3333333,-232.79999,846.31465)"><g
       id="g12"
       transform="scale(0.1)"><g
         id="g14"><g
           id="g16"
           clip-path="url(#clipPath20)"><path
             d="m 2686.56,2982.49 h -628.65 v 1475.54 h 628.65 V 2982.49"
             style="fill:#007582;fill-opacity:1;fill-rule:nonzero;stroke:none"
             id="path22" /><path
             d="m 3087.5,6347.36 c -224.11,0 -580.79,-44.61 -810.02,-291 62.11,-224.21 223.78,-407.09 435.14,-496.5 77.31,216.93 311.83,247.96 459.03,247.96 74.19,0 128.69,-9.93 128.69,-9.93 v 534.49 c 0,0 -84.1,14.98 -212.84,14.98"
             style="fill:#2a3692;fill-opacity:1;fill-rule:nonzero;stroke:none"
             id="path24" /><path
             d="m 9304.91,3527.23 c -41.69,-8.24 -84.21,-12.56 -128.33,-12.56 v -0.05 c -367.8,0 -666.1,298.16 -666.1,666.12 0,39.64 1.82,78.49 8.56,116.28 h -522.89 l -3.73,-116.28 c 0,-654.13 530.2,-1184.24 1184.16,-1184.24 73.64,0 146.45,7.89 216.32,20.71 -85.19,152.75 -117.66,326.37 -87.99,510.02"
             style="fill:#231f20;fill-opacity:1;fill-rule:nonzero;stroke:none"
             id="path26" /><path
             d="m 10358.5,4180.8 c 0,653.79 -530.23,1183.96 -1184.12,1183.96 -614.7,0 -1119.87,-468.51 -1178.31,-1067.65 h 522.97 c 55.06,312.23 327.21,549.65 655.34,549.65 367.74,0 665.93,-298.23 665.93,-665.96 h 518.19"
             style="fill:#2a3692;fill-opacity:1;fill-rule:nonzero;stroke:none"
             id="path28" /><path
             d="m 9840.31,4180.8 v -45.83 c -18.39,-270.24 -197.06,-496.2 -442.41,-582.5 -30.04,-10.55 -61.12,-19.03 -92.99,-25.24 -6.84,-42 -11.46,-84.85 -11.46,-128.78 0,-138.57 36.3,-268.43 99.45,-381.24 533.55,98.47 940.6,554.05 965.6,1110.06 v 53.53 h -518.19"
             style="fill:#21b5b0;fill-opacity:1;fill-rule:nonzero;stroke:none"
             id="path30" /><path
             d="m 5604.38,4574.31 h 9.18 c 0,0 22.69,-128.76 59.77,-253.55 l 29.24,-97.88 c 163.83,19.23 307.52,88.45 424.35,192.73 l -259.01,907.89 h -517.84 l -257.78,-913.32 c 115.97,-101.31 261.85,-169.22 422.97,-188.11 l 28.94,97.96 c 37.05,124.88 60.18,254.28 60.18,254.28"
             style="fill:#21b5b0;fill-opacity:1;fill-rule:nonzero;stroke:none"
             id="path32" /><path
             d="m 5150.45,2979.28 249.47,844.37 c -106.65,114.54 -246.81,197.19 -405.4,231.52 l -75.22,-266.72 c -37.06,-124.83 -55.61,-249.67 -55.61,-249.67 h -9.14 c 0,0 -13.96,124.84 -46.26,249.67 l -73.91,278.75 c -203.48,-24.32 -383.03,-126.32 -507.73,-276.05 l 257.97,-811.87 h 665.83"
             style="fill:#f46917;fill-opacity:1;fill-rule:nonzero;stroke:none"
             id="path34" /><path
             d="m 3916.83,4754.93 309.81,-963.78 c 124.41,149.48 304.63,251.54 507.73,276.05 l -276.58,1029.88 c -46.22,180.2 -138.72,240.41 -332.9,240.41 h -402.27 v -499.43 h 64.75 c 69.3,0 106.35,-13.76 129.46,-83.13"
             style="fill:#21b5b0;fill-opacity:1;fill-rule:nonzero;stroke:none"
             id="path36" /><path
             d="m 7155.23,4297.02 h -604.86 l -132.98,-508.57 c -28.21,-108.72 -42.35,-217.33 -45.48,-243.51 v -565.66 h 364.57 l 418.75,1317.74"
             style="fill:#007582;fill-opacity:1;fill-rule:nonzero;stroke:none"
             id="path38" /><path
             d="M 2057.91,5337.54 H 1746 v -500.02 h 311.91 v -379.44 h 628.7 v 379.44 500.02 h -628.7"
             style="fill:#f46917;fill-opacity:1;fill-rule:nonzero;stroke:none"
             id="path40" /><path
             d="m 2712.54,5559.96 c -211.36,89.41 -373,272.27 -435.17,496.53 -130.32,-140.14 -219.57,-344.98 -219.57,-644.65 v -74.3 h 628.7 v 59.54 c 0,63.67 9.72,117.17 26.04,162.88"
             style="fill:#231f20;fill-opacity:1;fill-rule:nonzero;stroke:none"
             id="path42" /><path
             d="M 6370.18,3538.84 H 6361 c 0,0 -13.88,124.79 -50.84,249.61 l -183.28,627.17 c -115.82,-103.4 -262.21,-172.82 -424.3,-192.74 l 371.74,-1243.6 h 297.54 v 565.67"
             style="fill:#231f20;fill-opacity:1;fill-rule:nonzero;stroke:none"
             id="path44" /><path
             d="m 2686.56,4837.58 h 539.48 v 499.97 h -539.48 v -499.97"
             style="fill:#231f20;fill-opacity:1;fill-rule:nonzero;stroke:none"
             id="path46" /><path
             d="m 7091.5,5337.44 c -194.17,0 -286.68,-60.16 -332.93,-240.35 L 6550.3,4297.05 h 604.93 l 144.36,457.88 c 27.76,69.36 60.13,83.15 129.51,83.15 h 64.69 v 499.36 H 7091.5"
             style="fill:#231f20;fill-opacity:1;fill-rule:nonzero;stroke:none"
             id="path48" /><path
             d="m 5515.27,4222.13 c -160.57,18.74 -307.08,87.37 -422.82,188.14 l -97.93,-355.15 c 158.26,-34.17 298.81,-117.36 405.41,-231.41 l 115.34,398.42"
             style="fill:#231f20;fill-opacity:1;fill-rule:nonzero;stroke:none"
             id="path50" /></g></g></g></g></svg>
