<svg version="1.1" id="Layer_1" xmlns="http://www.w3.org/2000/svg" xmlns:xlink="http://www.w3.org/1999/xlink" x="0px" y="0px"
	 width="100%" viewBox="0 0 306 165" enable-background="new 0 0 306 165" xml:space="preserve">
<path fill="#FEFEFE" opacity="1.000000" stroke="none" 
	d="
M1.000000,84.000000 
	C1.000000,56.346222 1.000000,28.692444 1.000000,1.019334 
	C102.939590,1.019334 204.879196,1.019334 306.909393,1.019334 
	C306.909393,55.913837 306.909393,110.827873 306.909393,165.870956 
	C205.000107,165.870956 103.000076,165.870956 1.000000,165.870956 
	C1.000000,139.579697 1.000000,113.258507 1.305417,86.602684 
	C26.831419,111.468758 52.036850,136.684708 77.323715,161.818741 
	C78.423630,162.912018 80.271484,163.252808 81.908981,163.728348 
	C82.022697,163.343567 81.998360,163.174561 82.063049,162.673248 
	C82.091278,161.890381 82.030495,161.439819 82.041031,160.525970 
	C82.121254,136.510696 82.148598,112.958694 82.096657,89.406860 
	C82.093277,87.872940 81.481239,86.340370 81.113060,84.878372 
	C81.073792,84.949585 81.197517,84.844025 80.936386,84.485931 
	C69.396400,84.032822 58.117455,83.852219 46.838711,83.863922 
	C31.910419,83.879402 16.982283,84.045341 1.789106,84.120422 
	C1.349421,84.062813 1.174711,84.031410 1.000000,84.000000 
M245.974487,85.907669 
	C246.018982,111.258675 246.063477,136.609680 246.152863,162.787506 
	C247.191910,163.171982 248.228775,163.883347 249.270325,163.890274 
	C259.415314,163.957703 269.571533,164.168884 279.701385,163.761734 
	C283.749603,163.599014 287.951294,162.511414 291.718262,160.959244 
	C304.524261,155.682556 309.827698,139.390045 302.194122,129.144684 
	C300.577454,126.974884 298.135986,125.419609 296.029602,123.541107 
	C302.261932,119.041840 306.174438,113.646896 305.447906,105.814674 
	C304.526398,95.880135 298.672333,86.122078 281.051086,83.953117 
	C270.592316,83.897163 260.133423,83.803078 249.674957,83.839882 
	C248.536743,83.843880 247.401184,84.603233 245.974487,85.907669 
M200.133530,85.340797 
	C200.062134,110.623573 199.982742,135.906357 199.961945,161.189163 
	C199.961395,161.871078 200.594162,162.553513 201.511703,163.859283 
	C205.674973,163.885757 209.846649,164.069427 213.996597,163.847198 
	C215.319046,163.776367 216.583771,162.627365 218.046021,161.051849 
	C218.051315,137.181381 218.074783,113.310883 218.017059,89.440575 
	C218.013580,87.998466 217.363510,86.557915 216.116699,84.830223 
	C211.072357,84.921104 206.028000,85.011978 200.133530,85.340797 
M84.367630,79.903137 
	C85.872444,79.090446 87.666168,78.571304 88.836838,77.419113 
	C99.130142,67.288322 109.354889,57.086510 119.484299,46.791946 
	C121.099075,45.150841 122.138329,42.943439 124.680092,39.154938 
	C118.360527,33.740807 112.042252,28.656437 106.110573,23.155235 
	C99.948830,17.440672 94.255196,11.222269 88.118011,5.479447 
	C87.080414,4.508525 85.108269,0.787742 82.973938,5.961666 
	C82.967316,28.899023 82.942436,51.836422 82.994728,74.773643 
	C82.998245,76.318260 83.584389,77.861557 84.367630,79.903137 
M14.685596,32.436634 
	C14.343849,33.718140 13.942834,34.987152 13.669616,36.283104 
	C11.220961,47.897816 16.569908,59.813366 27.056528,66.156525 
	C37.295429,72.349838 50.450924,71.402870 59.737892,63.804035 
	C69.068588,56.169422 72.719070,43.238544 68.650261,32.234318 
	C64.523666,21.073807 54.469776,13.581505 42.999123,13.118725 
	C30.667450,12.621208 20.535744,19.317574 14.685596,32.436634 
M171.958649,106.447723 
	C175.087479,99.397789 178.216324,92.347862 181.620636,84.677193 
	C174.514145,84.677193 168.139389,84.677193 161.458801,84.677193 
	C155.585266,99.166046 149.666275,113.767006 143.511734,128.949036 
	C142.789459,127.329048 142.358093,126.438858 141.989624,125.523369 
	C136.913879,112.912140 131.953842,100.252083 126.651489,87.737000 
	C125.932526,86.040024 123.519638,83.975395 121.871597,83.958290 
	C116.659729,83.904175 111.438606,84.741264 105.610901,85.291229 
	C106.316856,87.078842 106.893547,88.740883 107.615639,90.337166 
	C117.872627,113.011795 128.090652,135.704544 138.505829,158.306412 
	C139.631577,160.749374 141.927505,162.653076 143.680634,164.806931 
	C145.232361,162.579834 147.151154,160.523148 148.276810,158.098267 
	C156.144775,141.149033 163.848724,124.123680 171.958649,106.447723 
z"/>
<path fill="#EC662A" opacity="1.000000" stroke="none" 
	d="
M81.969704,160.989258 
	C82.030495,161.439819 82.091278,161.890381 81.900620,162.738541 
	C81.569588,163.219803 81.406601,163.340836 81.424515,163.380829 
	C81.513878,163.580276 81.650772,163.758453 81.770935,163.944107 
	C80.271484,163.252808 78.423630,162.912018 77.323715,161.818741 
	C52.036850,136.684708 26.831419,111.468758 1.305417,86.134026 
	C1.000000,85.555557 1.000000,85.111107 1.000000,84.333328 
	C1.174711,84.031410 1.349421,84.062813 2.096548,84.392685 
	C28.845148,84.742104 55.021332,84.793060 81.197517,84.844025 
	C81.197517,84.844025 81.073792,84.949585 81.060928,85.362350 
	C81.032234,109.456490 81.000023,133.137894 81.042122,156.819153 
	C81.044594,158.209747 81.646660,159.599243 81.969704,160.989258 
z"/>
<path fill="#1D2B45" opacity="1.000000" stroke="none" 
	d="
M281.969055,84.135986 
	C298.672333,86.122078 304.526398,95.880135 305.447906,105.814674 
	C306.174438,113.646896 302.261932,119.041840 296.029602,123.541107 
	C298.135986,125.419609 300.577454,126.974884 302.194122,129.144684 
	C309.827698,139.390045 304.524261,155.682556 291.718262,160.959244 
	C287.951294,162.511414 283.749603,163.599014 279.701385,163.761734 
	C269.571533,164.168884 259.415314,163.957703 249.270325,163.890274 
	C248.228775,163.883347 247.191910,163.171982 246.415161,162.074524 
	C246.713226,135.916290 246.749008,110.471062 247.276184,85.020309 
	C256.591034,85.011337 265.415253,85.071770 274.237457,84.964729 
	C276.817627,84.933426 279.392029,84.425468 281.969055,84.135986 
M270.418091,117.695984 
	C273.983154,117.140396 277.610962,116.835739 281.096832,115.963570 
	C285.145081,114.950684 287.207642,111.980576 286.950958,107.815994 
	C286.703033,103.793060 284.240784,101.234428 280.311615,100.976486 
	C275.046661,100.630844 269.741974,100.890907 264.522705,100.890907 
	C264.522705,106.526230 264.522705,112.049385 264.522705,117.695923 
	C266.525269,117.695923 268.021149,117.695923 270.418091,117.695984 
M277.195892,131.902634 
	C272.918427,131.902634 268.640961,131.902634 264.319946,131.902634 
	C264.319946,137.459488 264.319946,142.526657 264.319946,148.367859 
	C269.364655,147.844055 274.070679,147.498810 278.731232,146.834625 
	C284.351105,146.033707 287.082825,143.386169 287.009064,139.254700 
	C286.930450,134.850586 283.975891,132.417084 277.195892,131.902634 
z"/>
<path fill="#43B7BA" opacity="1.000000" stroke="none" 
	d="
M14.799221,32.059235 
	C20.535744,19.317574 30.667450,12.621208 42.999123,13.118725 
	C54.469776,13.581505 64.523666,21.073807 68.650261,32.234318 
	C72.719070,43.238544 69.068588,56.169422 59.737892,63.804035 
	C50.450924,71.402870 37.295429,72.349838 27.056528,66.156525 
	C16.569908,59.813366 11.220961,47.897816 13.669616,36.283104 
	C13.942834,34.987152 14.343849,33.718140 14.799221,32.059235 
z"/>
<path fill="#1D2B46" opacity="1.000000" stroke="none" 
	d="
M171.781921,106.785210 
	C163.848724,124.123680 156.144775,141.149033 148.276810,158.098267 
	C147.151154,160.523148 145.232361,162.579834 143.680634,164.806931 
	C141.927505,162.653076 139.631577,160.749374 138.505829,158.306412 
	C128.090652,135.704544 117.872627,113.011795 107.615639,90.337166 
	C106.893547,88.740883 106.316856,87.078842 105.610901,85.291229 
	C111.438606,84.741264 116.659729,83.904175 121.871597,83.958290 
	C123.519638,83.975395 125.932526,86.040024 126.651489,87.737000 
	C131.953842,100.252083 136.913879,112.912140 141.989624,125.523369 
	C142.358093,126.438858 142.789459,127.329048 143.511734,128.949036 
	C149.666275,113.767006 155.585266,99.166046 161.458801,84.677193 
	C168.139389,84.677193 174.514145,84.677193 181.620636,84.677193 
	C178.216324,92.347862 175.087479,99.397789 171.781921,106.785210 
z"/>
<path fill="#5D2B83" opacity="1.000000" stroke="none" 
	d="
M83.117264,5.039118 
	C85.108269,0.787742 87.080414,4.508525 88.118011,5.479447 
	C94.255196,11.222269 99.948830,17.440672 106.110573,23.155235 
	C112.042252,28.656437 118.360527,33.740807 124.680092,39.154938 
	C122.138329,42.943439 121.099075,45.150841 119.484299,46.791946 
	C109.354889,57.086510 99.130142,67.288322 88.836838,77.419113 
	C87.666168,78.571304 85.872444,79.090446 84.163322,79.158493 
	C83.972878,55.360817 84.002251,32.307755 83.962708,9.254807 
	C83.960297,7.849098 83.411720,6.444326 83.117264,5.039118 
z"/>
<path fill="#1B2944" opacity="1.000000" stroke="none" 
	d="
M217.874908,161.971710 
	C216.583771,162.627365 215.319046,163.776367 213.996597,163.847198 
	C209.846649,164.069427 205.674973,163.885757 201.246048,163.064117 
	C200.981476,136.546936 200.982574,110.824898 200.983658,85.102859 
	C206.028000,85.011978 211.072357,84.921104 216.560486,85.434525 
	C217.002762,109.608582 216.982773,133.178375 217.037476,156.748001 
	C217.041519,158.489883 217.583176,160.230499 217.874908,161.971710 
z"/>
<path fill="#EB5B10" opacity="1.000000" stroke="none" 
	d="
M80.936386,84.485931 
	C55.021332,84.793060 28.845148,84.742104 2.361522,84.418877 
	C16.982283,84.045341 31.910419,83.879402 46.838711,83.863922 
	C58.117455,83.852219 69.396400,84.032822 80.936386,84.485931 
z"/>
<path fill="#000631" opacity="1.000000" stroke="none" 
	d="
M200.558594,85.221832 
	C200.982574,110.824898 200.981476,136.546936 200.955994,162.752335 
	C200.594162,162.553513 199.961395,161.871078 199.961945,161.189163 
	C199.982742,135.906357 200.062134,110.623573 200.558594,85.221832 
z"/>
<path fill="#00173A" opacity="1.000000" stroke="none" 
	d="
M217.960464,161.511780 
	C217.583176,160.230499 217.041519,158.489883 217.037476,156.748001 
	C216.982773,133.178375 217.002762,109.608582 217.009293,85.577728 
	C217.363510,86.557915 218.013580,87.998466 218.017059,89.440575 
	C218.074783,113.310883 218.051315,137.181381 217.960464,161.511780 
z"/>
<path fill="#00002F" opacity="1.000000" stroke="none" 
	d="
M246.784790,85.025826 
	C246.749008,110.471062 246.713226,135.916290 246.392700,161.661102 
	C246.063477,136.609680 246.018982,111.258675 246.249359,85.469727 
	C246.524246,85.031792 246.784775,85.025826 246.784790,85.025826 
z"/>
<path fill="#EB5B10" opacity="1.000000" stroke="none" 
	d="
M82.041031,160.525970 
	C81.646660,159.599243 81.044594,158.209747 81.042122,156.819153 
	C81.000023,133.137894 81.032234,109.456490 81.100189,85.291145 
	C81.481239,86.340370 82.093277,87.872940 82.096657,89.406860 
	C82.148598,112.958694 82.121254,136.510696 82.041031,160.525970 
z"/>
<path fill="#4E0179" opacity="1.000000" stroke="none" 
	d="
M83.045609,5.500392 
	C83.411720,6.444326 83.960297,7.849098 83.962708,9.254807 
	C84.002251,32.307755 83.972878,55.360817 83.929291,78.909660 
	C83.584389,77.861557 82.998245,76.318260 82.994728,74.773643 
	C82.942436,51.836422 82.967316,28.899023 83.045609,5.500392 
z"/>
<path fill="#021237" opacity="1.000000" stroke="none" 
	d="
M247.276184,85.020309 
	C246.784775,85.025826 246.524246,85.031792 246.394318,85.022003 
	C247.401184,84.603233 248.536743,83.843880 249.674957,83.839882 
	C260.133423,83.803078 270.592316,83.897163 281.510071,84.044556 
	C279.392029,84.425468 276.817627,84.933426 274.237457,84.964729 
	C265.415253,85.071770 256.591034,85.011337 247.276184,85.020309 
z"/>
<path fill="#EB5B10" opacity="1.000000" stroke="none" 
	d="
M81.908981,163.728348 
	C81.650772,163.758453 81.513878,163.580276 81.424515,163.380829 
	C81.406601,163.340836 81.569588,163.219803 81.811600,163.070831 
	C81.998360,163.174561 82.022697,163.343567 81.908981,163.728348 
z"/>
<path fill="#F6F7F7" opacity="1.000000" stroke="none" 
	d="
M269.967560,117.695953 
	C268.021149,117.695923 266.525269,117.695923 264.522705,117.695923 
	C264.522705,112.049385 264.522705,106.526230 264.522705,100.890907 
	C269.741974,100.890907 275.046661,100.630844 280.311615,100.976486 
	C284.240784,101.234428 286.703033,103.793060 286.950958,107.815994 
	C287.207642,111.980576 285.145081,114.950684 281.096832,115.963570 
	C277.610962,116.835739 273.983154,117.140396 269.967560,117.695953 
z"/>
<path fill="#FBFBFB" opacity="1.000000" stroke="none" 
	d="
M277.652405,131.913406 
	C283.975891,132.417084 286.930450,134.850586 287.009064,139.254700 
	C287.082825,143.386169 284.351105,146.033707 278.731232,146.834625 
	C274.070679,147.498810 269.364655,147.844055 264.319946,148.367859 
	C264.319946,142.526657 264.319946,137.459488 264.319946,131.902634 
	C268.640961,131.902634 272.918427,131.902634 277.652405,131.913406 
z"/>
</svg>